<?xml version="1.0" encoding="UTF-8" standalone="no"?>
<!-- Created with Inkscape (http://www.inkscape.org/) -->

<svg
   width="300mm"
   height="300mm"
   viewBox="0 0 300 300"
   version="1.1"
   id="svg1"
   inkscape:version="1.3.2 (091e20e, 2023-11-25)"
   sodipodi:docname="zob.svg"
   inkscape:export-filename="zob.png"
   inkscape:export-xdpi="96"
   inkscape:export-ydpi="96"
   xmlns:inkscape="http://www.inkscape.org/namespaces/inkscape"
   xmlns:sodipodi="http://sodipodi.sourceforge.net/DTD/sodipodi-0.dtd"
   xmlns:xlink="http://www.w3.org/1999/xlink"
   xmlns="http://www.w3.org/2000/svg"
   xmlns:svg="http://www.w3.org/2000/svg">
  <sodipodi:namedview
     id="namedview1"
     pagecolor="#ffffff"
     bordercolor="#000000"
     borderopacity="0.25"
     inkscape:showpageshadow="2"
     inkscape:pageopacity="0.0"
     inkscape:pagecheckerboard="0"
     inkscape:deskcolor="#d1d1d1"
     inkscape:document-units="mm"
     inkscape:zoom="0.27503673"
     inkscape:cx="218.15268"
     inkscape:cy="61.809926"
     inkscape:window-width="1432"
     inkscape:window-height="1247"
     inkscape:window-x="301"
     inkscape:window-y="286"
     inkscape:window-maximized="0"
     inkscape:current-layer="layer1" />
  <defs
     id="defs1">
    <linearGradient
       id="linearGradient4"
       inkscape:collect="always">
      <stop
         style="stop-color:#362839;stop-opacity:0.99215698;"
         offset="0"
         id="stop3" />
      <stop
         style="stop-color:#c993e3;stop-opacity:0.96785712;"
         offset="1"
         id="stop4" />
    </linearGradient>
    <linearGradient
       id="linearGradient22"
       inkscape:collect="always">
      <stop
         style="stop-color:#190b1d;stop-opacity:0.6785714;"
         offset="0"
         id="stop21" />
      <stop
         style="stop-color:#c993e3;stop-opacity:0.96785712;"
         offset="1"
         id="stop22" />
    </linearGradient>
    <linearGradient
       id="linearGradient20"
       inkscape:collect="always">
      <stop
         style="stop-color:#190b1d;stop-opacity:0.90357143;"
         offset="0"
         id="stop19" />
      <stop
         style="stop-color:#c993e3;stop-opacity:0.96785712;"
         offset="1"
         id="stop20" />
    </linearGradient>
    <inkscape:path-effect
       effect="bspline"
       id="path-effect3"
       is_visible="true"
       lpeversion="1.3"
       weight="33.333333"
       steps="2"
       helper_size="0"
       apply_no_weight="true"
       apply_with_weight="true"
       only_selected="false"
       uniform="false" />
    <inkscape:path-effect
       effect="bspline"
       id="path-effect2"
       is_visible="true"
       lpeversion="1.3"
       weight="33.333333"
       steps="2"
       helper_size="0"
       apply_no_weight="true"
       apply_with_weight="true"
       only_selected="false"
       uniform="false" />
    <linearGradient
       id="linearGradient1"
       inkscape:collect="always">
      <stop
         style="stop-color:#ecd9f1;stop-opacity:0.99215698;"
         offset="0"
         id="stop1" />
      <stop
         style="stop-color:#c993e3;stop-opacity:0.96785712;"
         offset="1"
         id="stop2" />
    </linearGradient>
    <linearGradient
       inkscape:collect="always"
       xlink:href="#linearGradient1"
       id="linearGradient2"
       x1="1.1929169"
       y1="150.30367"
       x2="299.41443"
       y2="150.30367"
       gradientUnits="userSpaceOnUse"
       gradientTransform="translate(61.584331,-155.88534)" />
    <linearGradient
       inkscape:collect="always"
       xlink:href="#linearGradient4"
       id="linearGradient18"
       gradientUnits="userSpaceOnUse"
       gradientTransform="translate(62.184514,-155.28515)"
       x1="1.1929169"
       y1="150.30367"
       x2="299.41443"
       y2="150.30367" />
    <linearGradient
       inkscape:collect="always"
       xlink:href="#linearGradient20"
       id="linearGradient19"
       gradientUnits="userSpaceOnUse"
       gradientTransform="translate(64.240936,-157.19256)"
       x1="1.1929169"
       y1="150.30367"
       x2="299.41443"
       y2="150.30367" />
    <filter
       inkscape:collect="always"
       style="color-interpolation-filters:sRGB"
       id="filter21"
       x="-0.02016098"
       y="-0.0086684501"
       width="1.040322"
       height="1.0173369">
      <feGaussianBlur
         inkscape:collect="always"
         stdDeviation="0.860382"
         id="feGaussianBlur21" />
    </filter>
    <linearGradient
       inkscape:collect="always"
       xlink:href="#linearGradient22"
       id="linearGradient21"
       gradientUnits="userSpaceOnUse"
       gradientTransform="translate(33.13177,-170.48743)"
       x1="1.1929169"
       y1="150.30367"
       x2="299.41443"
       y2="150.30367" />
    <linearGradient
       inkscape:collect="always"
       xlink:href="#linearGradient22"
       id="linearGradient23"
       gradientUnits="userSpaceOnUse"
       gradientTransform="translate(30.82304,-171.30495)"
       x1="1.1929169"
       y1="150.30367"
       x2="299.41443"
       y2="150.30367" />
    <filter
       inkscape:collect="always"
       style="color-interpolation-filters:sRGB"
       id="filter21-5"
       x="-0.02016098"
       y="-0.0086684501"
       width="1.040322"
       height="1.0173369">
      <feGaussianBlur
         inkscape:collect="always"
         stdDeviation="0.860382"
         id="feGaussianBlur21-3" />
    </filter>
  </defs>
  <g
     inkscape:label="Layer 1"
     inkscape:groupmode="layer"
     id="layer1">
    <path
       d="m 126.49903,65.183618 c 0.39527,2.256952 0.85336,5.391796 1.52807,11.535213 1.45042,13.206439 3.74029,38.091769 5.34334,55.878239 1.60308,17.78649 2.5192,28.47361 3.05356,34.96221 0.33351,4.04969 0.39505,4.67238 0.524,6.19342 a 5.0382195,5.0382195 0 0 0 -3.80648,4.87516 5.0382195,5.0382195 0 0 0 5.03845,5.03793 5.0382195,5.0382195 0 0 0 5.03793,-5.03793 5.0382195,5.0382195 0 0 0 -4.43228,-5.00022 c -0.002,-0.33777 0.0182,-0.56061 0.005,-0.95394 -0.15268,-4.4276 -1.06877,-12.51934 -3.05356,-32.13809 -1.98478,-19.61875 -5.03802,-50.763845 -6.71742,-67.40519 -0.3594,-3.561252 -0.56796,-5.473017 -0.80615,-7.709607 a 2.2900999,2.2900999 0 0 1 -0.56793,0.07596 2.2900999,2.2900999 0 0 1 -1.14618,-0.313159 z"
       style="opacity:1;fill:url(#linearGradient2);fill-opacity:0.992157;stroke-width:0.28759"
       id="path18" />
    <path
       d="m 129.15565,63.876392 c 0.39527,2.25695 0.85336,5.39179 1.52807,11.53521 1.45042,13.20644 3.74029,38.091768 5.34334,55.878238 1.60308,17.78649 2.5192,28.47361 3.05356,34.96221 0.33351,4.04969 0.39505,4.67238 0.524,6.19342 a 5.0382195,5.0382195 0 0 0 -3.80648,4.87516 5.0382195,5.0382195 0 0 0 5.03845,5.03793 5.0382195,5.0382195 0 0 0 5.03793,-5.03793 5.0382195,5.0382195 0 0 0 -4.43228,-5.00022 c -0.002,-0.33777 0.0182,-0.56061 0.005,-0.95394 -0.15268,-4.4276 -1.06877,-12.51934 -3.05356,-32.13809 -1.98478,-19.61875 -5.03802,-50.763848 -6.71742,-67.405188 -0.3594,-3.56125 -0.56796,-5.47302 -0.80615,-7.70961 a 2.2900999,2.2900999 0 0 1 -0.56793,0.076 2.2900999,2.2900999 0 0 1 -1.14618,-0.31316 z"
       style="fill:url(#linearGradient19);fill-opacity:0.992157;stroke-width:0.28759;opacity:0.66752577"
       id="path18-7" />
    <path
       d="M 143.57522,1.9448043 A 149.11076,149.11076 0 0 0 47.671509,42.734045 149.11076,149.11076 0 0 0 42.133862,253.53617 149.11076,149.11076 0 0 0 111.71308,294.73159 c -1.82426,-19.39427 -3.65547,-37.93778 -5.52886,-51.53329 -2.6718,-19.38954 -5.41975,-29.7711 -8.396907,-38.70255 -2.97715,-8.93143 -6.18331,-16.41247 -7.93905,-20.53466 -1.755743,-4.12215 -2.061439,-4.88554 -0.992705,-6.56497 1.068734,-1.67943 3.511628,-4.27488 6.641455,-7.93905 3.129827,-3.6642 6.946807,-8.39696 11.298017,-15.5727 4.35123,-7.17571 9.23673,-16.79409 12.82454,-26.25989 3.58784,-9.4658 5.87787,-18.77871 6.7939,-26.71775 0.91607,-7.939052 0.45766,-14.503847 0.076,-20.152783 -0.38168,-5.648939 -0.6866,-10.381746 -0.6103,-13.358875 0.0294,-1.144877 0.11872,-2.017896 0.25735,-2.706294 a 2.2900999,2.2900999 0 0 1 -0.18087,-0.8816 2.2900999,2.2900999 0 0 1 2.28978,-2.2903 2.2900999,2.2900999 0 0 1 2.2903,2.2903 2.2900999,2.2900999 0 0 1 -0.13642,0.761193 c 0.44076,1.355299 0.82685,3.382918 1.35754,6.567041 0.76335,4.580251 1.83198,11.450532 4.04574,19.160588 2.2138,7.710057 5.57257,16.25971 9.00772,24.04608 3.43518,7.7864 6.9469,14.80898 11.90884,21.14497 4.96191,6.33596 11.37424,11.98526 16.71784,16.33647 5.34357,4.35119 9.61822,7.40465 11.90832,9.00772 2.29007,1.60304 2.59536,1.75529 2.13733,4.42712 -0.45803,2.6718 -1.67915,7.86281 -2.59519,13.20643 -0.91605,5.34358 -1.52709,10.8396 -1.83244,17.40462 -0.30534,6.56499 -0.3053,14.19894 0.3054,23.97011 0.6107,9.77117 1.83222,21.6792 3.35897,35.87791 1.47888,13.75354 3.20513,29.39406 3.93878,38.35632 A 149.11076,149.11076 0 0 0 252.93598,259.0733 149.11076,149.11076 0 0 0 258.47311,48.271692 149.11076,149.11076 0 0 0 143.57522,1.9448043 Z"
       style="opacity:1;fill:url(#linearGradient18);fill-opacity:0.992157;stroke-width:0.28759"
       id="path14" />
    <path
       d="m 102.58477,52.907199 c 0.39527,2.25695 0.85336,5.39179 1.52807,11.53521 1.45042,13.206437 3.74029,38.091771 5.34334,55.878241 1.60308,17.78649 2.5192,28.47361 3.05356,34.96221 0.33351,4.04969 0.39505,4.67238 0.524,6.19342 a 5.0382195,5.0382195 0 0 0 -3.80648,4.87516 5.0382195,5.0382195 0 0 0 5.03845,5.03793 5.0382195,5.0382195 0 0 0 5.03793,-5.03793 5.0382195,5.0382195 0 0 0 -4.43228,-5.00022 c -0.002,-0.33777 0.0182,-0.56061 0.005,-0.95394 -0.15268,-4.4276 -1.06877,-12.51934 -3.05356,-32.13809 -1.98478,-19.61875 -5.03802,-50.763854 -6.71742,-67.405191 -0.3594,-3.56125 -0.56796,-5.47302 -0.80615,-7.70961 a 2.2900999,2.2900999 0 0 1 -0.56793,0.076 2.2900999,2.2900999 0 0 1 -1.14618,-0.31316 z"
       style="fill:#7be5ba;fill-opacity:0.992157;stroke-width:0.28759"
       id="path18-7-3" />
    <path
       d="m 98.046486,50.581518 c 0.39527,2.25695 0.85336,5.39179 1.52807,11.53521 1.450424,13.20644 3.740294,38.091772 5.343344,55.878242 1.60308,17.78649 2.5192,28.47361 3.05356,34.96221 0.33351,4.04969 0.39505,4.67238 0.524,6.19342 a 5.0382195,5.0382195 0 0 0 -3.80648,4.87516 5.0382195,5.0382195 0 0 0 5.03845,5.03793 5.0382195,5.0382195 0 0 0 5.03793,-5.03793 5.0382195,5.0382195 0 0 0 -4.43228,-5.00022 c -0.002,-0.33777 0.0182,-0.56061 0.005,-0.95394 -0.15268,-4.4276 -1.06877,-12.51934 -3.05356,-32.13809 -1.98478,-19.61875 -5.03802,-50.763852 -6.71742,-67.405192 -0.3594,-3.56125 -0.567964,-5.47302 -0.806154,-7.70961 a 2.2900999,2.2900999 0 0 1 -0.56793,0.076 2.2900999,2.2900999 0 0 1 -1.14618,-0.31316 z"
       style="opacity:0.38659794;fill:url(#linearGradient21);fill-opacity:0.992157;stroke-width:0.28759"
       id="path18-7-2" />
    <path
       d="m 95.737756,49.763996 c 0.39527,2.25695 0.85336,5.39179 1.52807,11.53521 1.450424,13.20644 3.740294,38.09177 5.343344,55.878244 1.60308,17.78649 2.5192,28.47362 3.05356,34.96221 0.33351,4.04969 0.39505,4.67239 0.524,6.19342 a 5.0382195,5.0382195 0 0 0 -3.80648,4.87516 5.0382195,5.0382195 0 0 0 5.03845,5.03793 5.0382195,5.0382195 0 0 0 5.03793,-5.03793 5.0382195,5.0382195 0 0 0 -4.43228,-5.00022 c -0.002,-0.33777 0.0182,-0.56061 0.005,-0.95394 -0.15268,-4.4276 -1.06877,-12.51934 -3.05356,-32.13809 -1.98478,-19.61875 -5.03802,-50.763854 -6.71742,-67.405194 -0.3594,-3.56125 -0.567964,-5.47302 -0.806154,-7.70961 a 2.2900999,2.2900999 0 0 1 -0.56793,0.076 2.2900999,2.2900999 0 0 1 -1.14618,-0.31316 z"
       style="opacity:0.386598;fill:url(#linearGradient23);fill-opacity:0.992157;stroke-width:0.28759"
       id="path18-7-2-5" />
    <path
       d="m 166.86561,284.85614 c -0.73365,-8.96226 -2.4599,-24.60278 -3.93878,-38.35632 -1.52675,-14.19871 -2.74827,-26.10674 -3.35897,-35.87791 -0.6107,-9.77117 -0.61074,-17.40512 -0.3054,-23.97011 0.30535,-6.56502 0.91639,-12.06104 1.83244,-17.40462 0.91604,-5.34362 2.13716,-10.53463 2.59519,-13.20643 0.45803,-2.67183 0.15274,-2.82408 -2.13733,-4.42712 -2.2901,-1.60307 -6.56475,-4.65653 -11.90832,-9.00772 -5.34359,-4.35121 -11.75592,-10.00051 -16.71783,-16.33647 -4.96194,-6.33599 -8.47366,-13.35857 -11.90884,-21.14497 -3.43515,-7.786378 -6.79392,-16.336028 -9.00772,-24.046085 -2.21376,-7.710056 -3.28239,-14.580337 -4.04574,-19.160588 -0.53069,-3.184123 -0.91678,-5.211742 -1.35754,-6.567041 a 2.2900999,2.2900999 0 0 0 0.13642,-0.761193 2.2900999,2.2900999 0 0 0 -2.2903,-2.2903 2.2900999,2.2900999 0 0 0 -2.28977,2.2903 2.2900999,2.2900999 0 0 0 0.18087,0.8816 c -0.13863,0.688398 -0.22799,1.561417 -0.25735,2.706294 -0.0763,2.977129 0.22862,7.709936 0.6103,13.358875 0.38169,5.648936 0.8401,12.21373 -0.076,20.15278 -0.91603,7.939042 -3.206058,17.251968 -6.793898,26.717758 -3.5878,9.4658 -8.4733,19.08418 -12.82453,26.25989 -4.35121,7.17574 -8.16818,11.9085 -11.29801,15.5727 -3.12983,3.66417 -5.57272,6.25962 -6.64145,7.93905 -1.06874,1.67943 -0.76304,2.44282 0.9927,6.56497 1.75574,4.12219 4.9619,11.60323 7.93905,20.53466 2.97716,8.93145 5.7251,19.31301 8.3969,38.70255 1.87339,13.59551 3.7046,32.13902 5.52886,51.53329 a 149.11076,149.11076 0 0 0 78.945018,-0.65784 z"
       style="opacity:0.329897;fill:#7be5ba;fill-opacity:0.992157;stroke-width:0.264583"
       id="path16" />
    <path
       d="m 161.86554,281.55402 c -0.73365,-8.96226 -2.4599,-24.60278 -3.93878,-38.35632 -1.52675,-14.19871 -2.74827,-26.10674 -3.35897,-35.87791 -0.6107,-9.77117 -0.61074,-17.40512 -0.3054,-23.97011 0.30535,-6.56502 0.91639,-12.06104 1.83244,-17.40462 0.91604,-5.34362 2.13716,-10.53463 2.59519,-13.20643 0.45803,-2.67183 0.15274,-2.82408 -2.13733,-4.42712 -2.2901,-1.60307 -6.56475,-4.65653 -11.90832,-9.00772 -5.34359,-4.35121 -11.75592,-10.00051 -16.71783,-16.33647 -4.96194,-6.33599 -8.47366,-13.35857 -11.90884,-21.14498 -3.43515,-7.786365 -6.79392,-16.336015 -9.00772,-24.046075 -2.21375,-7.71006 -3.28238,-14.58034 -4.04573,-19.16059 -0.53069,-3.18412 -0.91678,-5.21174 -1.35754,-6.56704 a 2.2900999,2.2900999 0 0 0 0.13642,-0.76119 2.2900999,2.2900999 0 0 0 -2.290303,-2.2903 2.2900999,2.2900999 0 0 0 -2.28977,2.2903 2.2900999,2.2900999 0 0 0 0.18087,0.8816 c -0.13863,0.68839 -0.22799,1.56141 -0.25735,2.70629 -0.0763,2.97713 0.22862,7.70994 0.6103,13.35888 0.38169,5.64893 0.8401,12.21373 -0.076,20.15278 -0.91603,7.93904 -3.20606,17.251955 -6.7939,26.717755 -3.587799,9.4658 -8.473299,19.08418 -12.824529,26.25989 -4.35121,7.17574 -8.16818,11.9085 -11.29801,15.5727 -3.12983,3.66417 -5.57272,6.25962 -6.64145,7.93905 -1.06874,1.67943 -0.76304,2.44282 0.9927,6.56497 1.75574,4.12219 4.9619,11.60323 7.93905,20.53466 2.97716,8.93145 5.7251,19.31301 8.3969,38.70255 1.87339,13.59551 3.7046,32.13902 5.52886,51.53329 a 149.11076,149.11076 0 0 0 78.945012,-0.65784 z"
       style="opacity:0.260309;fill:#859d94;fill-opacity:0.992157;stroke-width:0.264583;filter:url(#filter21)"
       id="path16-6" />
    <path
       d="m 155.28372,277.90422 c -0.73365,-8.96226 -2.4599,-24.60278 -3.93878,-38.35632 -1.52675,-14.19871 -2.74827,-26.10674 -3.35897,-35.87791 -0.6107,-9.77117 -0.61074,-17.40512 -0.3054,-23.97011 0.30535,-6.56502 0.91639,-12.06104 1.83244,-17.40462 0.91604,-5.34362 2.13716,-10.53463 2.59519,-13.20643 0.45803,-2.67183 0.15274,-2.82408 -2.13733,-4.42712 -2.2901,-1.60307 -6.56475,-4.65653 -11.90832,-9.00772 -5.34359,-4.35121 -11.75592,-10.00051 -16.71783,-16.33647 -4.96194,-6.33599 -8.47366,-13.35857 -11.90884,-21.144981 -3.43515,-7.786365 -6.79392,-16.336015 -9.00772,-24.046075 -2.213749,-7.71006 -3.282379,-14.58034 -4.045729,-19.16059 -0.53069,-3.18412 -0.91678,-5.21174 -1.35754,-6.56704 a 2.2900999,2.2900999 0 0 0 0.13642,-0.76119 2.2900999,2.2900999 0 0 0 -2.290303,-2.2903 2.2900999,2.2900999 0 0 0 -2.28977,2.2903 2.2900999,2.2900999 0 0 0 0.18087,0.8816 c -0.13863,0.68839 -0.22799,1.56141 -0.25735,2.70629 -0.0763,2.97713 0.22862,7.70994 0.6103,13.35888 0.38169,5.64893 0.8401,12.21373 -0.076,20.15278 -0.91603,7.93904 -3.20606,17.251956 -6.7939,26.717756 -3.587799,9.4658 -8.473299,19.08418 -12.824529,26.25989 -4.35121,7.17574 -8.16818,11.9085 -11.29801,15.5727 -3.12983,3.66417 -5.57272,6.25962 -6.64145,7.93905 -1.06874,1.67943 -0.76304,2.44282 0.9927,6.56497 1.75574,4.12219 4.9619,11.60323 7.93905,20.53466 2.97716,8.93145 5.7251,19.31301 8.3969,38.70255 1.87339,13.59551 3.7046,32.13902 5.52886,51.53329 a 149.11076,149.11076 0 0 0 78.945011,-0.65784 z"
       style="opacity:0.136598;fill:#64c7a4;fill-opacity:0.573034;stroke-width:0.264583;filter:url(#filter21-5)"
       id="path16-6-6" />
  </g>
</svg>
